<svg width="39" height="42" viewBox="0 0 39 42" fill="none" xmlns="http://www.w3.org/2000/svg">
<path fill-rule="evenodd" clip-rule="evenodd" d="M33.9792 4.33335H31.875V0.166687H27.6667V4.33335H10.8333V0.166687H6.625V4.33335H4.52083C2.18521 4.33335 0.3125 6.20835 0.3125 8.50002V37.6667C0.3125 39.9584 2.18521 41.8334 4.52083 41.8334H33.9792C36.2938 41.8334 38.1875 39.9584 38.1875 37.6667V8.50002C38.1875 6.20835 36.2938 4.33335 33.9792 4.33335ZM33.9792 37.6667H4.52083V14.75H33.9792V37.6667ZM7.67708 23.0834C7.67708 20.2084 10.0338 17.875 12.9375 17.875C15.8413 17.875 18.1979 20.2084 18.1979 23.0834C18.1979 25.9584 15.8413 28.2917 12.9375 28.2917C10.0338 28.2917 7.67708 25.9584 7.67708 23.0834Z" fill="#49454F"/>
</svg>
