<svg width="51" height="50" viewBox="0 0 51 50" fill="none" xmlns="http://www.w3.org/2000/svg">
<path d="M23.1458 18.75H31.5625C32.1205 18.75 32.6557 18.5305 33.0503 18.1398C33.4449 17.7491 33.6666 17.2192 33.6666 16.6666C33.6666 16.1141 33.4449 15.5842 33.0503 15.1935C32.6557 14.8028 32.1205 14.5833 31.5625 14.5833H27.3541V12.5C27.3541 11.9474 27.1324 11.4175 26.7378 11.0268C26.3432 10.6361 25.808 10.4166 25.25 10.4166C24.6919 10.4166 24.1567 10.6361 23.7621 11.0268C23.3675 11.4175 23.1458 11.9474 23.1458 12.5V14.5833C21.4716 14.5833 19.866 15.2418 18.6822 16.4139C17.4984 17.586 16.8333 19.1757 16.8333 20.8333C16.8333 22.4909 17.4984 24.0806 18.6822 25.2527C19.866 26.4248 21.4716 27.0833 23.1458 27.0833H27.3541C27.9122 27.0833 28.4474 27.3028 28.842 27.6935C29.2366 28.0842 29.4583 28.6141 29.4583 29.1666C29.4583 29.7192 29.2366 30.2491 28.842 30.6398C28.4474 31.0305 27.9122 31.25 27.3541 31.25H18.9375C18.3794 31.25 17.8442 31.4695 17.4496 31.8602C17.055 32.2509 16.8333 32.7808 16.8333 33.3333C16.8333 33.8858 17.055 34.4158 17.4496 34.8065C17.8442 35.1972 18.3794 35.4166 18.9375 35.4166H23.1458V37.5C23.1458 38.0525 23.3675 38.5824 23.7621 38.9731C24.1567 39.3638 24.6919 39.5833 25.25 39.5833C25.808 39.5833 26.3432 39.3638 26.7378 38.9731C27.1324 38.5824 27.3541 38.0525 27.3541 37.5V35.4166C29.0283 35.4166 30.6339 34.7582 31.8177 33.5861C33.0016 32.414 33.6666 30.8243 33.6666 29.1666C33.6666 27.509 33.0016 25.9193 31.8177 24.7472C30.6339 23.5751 29.0283 22.9166 27.3541 22.9166H23.1458C22.5877 22.9166 22.0525 22.6972 21.6579 22.3065C21.2633 21.9158 21.0416 21.3858 21.0416 20.8333C21.0416 20.2808 21.2633 19.7509 21.6579 19.3602C22.0525 18.9695 22.5877 18.75 23.1458 18.75ZM25.25 2.08331C20.6722 2.08331 16.1971 3.42735 12.3908 5.94547C8.58452 8.46358 5.61786 12.0427 3.86601 16.2302C2.11415 20.4176 1.65579 25.0254 2.54888 29.4708C3.44196 33.9162 5.64639 37.9996 8.88339 41.2045C12.1204 44.4095 16.2446 46.5921 20.7344 47.4763C25.2243 48.3606 29.8782 47.9067 34.1075 46.1722C38.3368 44.4377 41.9517 41.5004 44.495 37.7318C47.0383 33.9632 48.3958 29.5325 48.3958 25C48.3958 18.9221 45.9572 13.0932 41.6166 8.79545C37.2759 4.49774 31.3886 2.08331 25.25 2.08331ZM25.25 43.75C21.5045 43.75 17.8431 42.6503 14.7289 40.59C11.6146 38.5298 9.18734 35.6014 7.754 32.1753C6.32067 28.7492 5.94564 24.9792 6.67635 21.342C7.40706 17.7049 9.21068 14.364 11.8591 11.7417C14.5076 9.11949 17.8819 7.33373 21.5554 6.61026C25.229 5.88678 29.0367 6.2581 32.497 7.67724C35.9574 9.09638 38.9151 11.4996 40.9959 14.583C43.0768 17.6665 44.1875 21.2916 44.1875 25C44.1875 29.9728 42.1923 34.7419 38.6408 38.2582C35.0893 41.7745 30.2725 43.75 25.25 43.75Z" fill="#49454F"/>
</svg>
