<svg width="51" height="54" viewBox="0 0 51 54" fill="none" xmlns="http://www.w3.org/2000/svg">
<path d="M48.783 20.0117L44.0107 18.3418L46.258 13.6239C46.4858 13.13 46.562 12.5741 46.4761 12.0329C46.3901 11.4917 46.1463 10.9918 45.7782 10.6022L40.4 4.95654C40.0269 4.56449 39.5461 4.30506 39.0252 4.21472C38.5044 4.12439 37.9697 4.2077 37.4962 4.45294L33.0017 6.81193L31.411 1.80239C31.243 1.28021 30.9241 0.825989 30.4987 0.502946C30.0733 0.179903 29.5625 0.00410219 29.0375 8.83571e-06H21.4625C20.9331 -0.00142554 20.4168 0.171815 19.9863 0.495243C19.5559 0.818672 19.2331 1.27593 19.0638 1.80239L17.473 6.81193L12.9785 4.45294C12.5081 4.2138 11.9785 4.13382 11.4629 4.22403C10.9473 4.31423 10.4711 4.57017 10.1 4.95654L4.72176 10.6022C4.34827 10.9939 4.10113 11.4986 4.01507 12.0453C3.92902 12.5921 4.00838 13.1534 4.24201 13.6504L6.48926 18.3683L1.71701 20.0382C1.21956 20.2145 0.786863 20.5493 0.479122 20.9959C0.171381 21.4424 0.00390787 21.9786 8.41717e-06 22.5297V30.4814C-0.00135802 31.037 0.163676 31.5791 0.471784 32.031C0.779892 32.4828 1.21549 32.8216 1.71701 32.9994L6.48926 34.6692L4.24201 39.3872C4.0142 39.8811 3.93801 40.4369 4.02394 40.9782C4.10987 41.5194 4.35369 42.0193 4.72176 42.4089L10.1 48.0545C10.4731 48.4466 10.9539 48.706 11.4748 48.7964C11.9956 48.8867 12.5303 48.8034 13.0038 48.5581L17.4983 46.1992L19.089 51.2087C19.2584 51.7352 19.5811 52.1924 20.0116 52.5158C20.442 52.8393 20.9584 53.0125 21.4878 53.0111H29.0627C29.5921 53.0125 30.1085 52.8393 30.5389 52.5158C30.9694 52.1924 31.2921 51.7352 31.4615 51.2087L33.0522 46.1992L37.5467 48.5581C38.0142 48.7912 38.5386 48.868 39.0489 48.7779C39.5592 48.6878 40.0309 48.4353 40.4 48.0545L45.7782 42.4089C46.1517 42.0172 46.3989 41.5125 46.4849 40.9658C46.571 40.419 46.4916 39.8577 46.258 39.3607L44.0107 34.6427L48.783 32.9729C49.2804 32.7965 49.7131 32.4618 50.0209 32.0152C50.3286 31.5687 50.4961 31.0325 50.5 30.4814V22.5297C50.5014 21.974 50.3363 21.432 50.0282 20.9801C49.7201 20.5283 49.2845 20.1895 48.783 20.0117ZM45.45 28.573L42.42 29.6332C41.7232 29.8704 41.084 30.264 40.5466 30.7865C40.0092 31.3089 39.5865 31.9479 39.3078 32.659C39.0292 33.3701 38.9012 34.1363 38.9329 34.9046C38.9645 35.6728 39.1549 36.4245 39.491 37.1078L40.9302 40.1294L38.1527 43.045L35.35 41.4547C34.7025 41.116 33.9932 40.9274 33.2702 40.9015C32.5472 40.8756 31.8273 41.0131 31.1593 41.3046C30.4913 41.5962 29.8908 42.035 29.3984 42.5913C28.906 43.1477 28.5332 43.8086 28.3052 44.5293L27.2952 47.71H23.2805L22.2705 44.5293C22.0445 43.7979 21.6696 43.1269 21.1719 42.5627C20.6741 41.9986 20.0654 41.5549 19.388 41.2624C18.7106 40.9699 17.9807 40.8356 17.2488 40.8688C16.517 40.902 15.8009 41.1019 15.15 41.4547L12.2715 42.9655L9.49401 40.0499L11.009 37.1078C11.3451 36.4245 11.5355 35.6728 11.5671 34.9046C11.5988 34.1363 11.4708 33.3701 11.1922 32.659C10.9135 31.9479 10.4908 31.3089 9.95342 30.7865C9.41601 30.264 8.77676 29.8704 8.08 29.6332L5.05001 28.573V24.4381L8.08 23.3779C8.77676 23.1406 9.41601 22.7471 9.95342 22.2246C10.4908 21.7021 10.9135 21.0632 11.1922 20.3521C11.4708 19.641 11.5988 18.8747 11.5671 18.1065C11.5355 17.3383 11.3451 16.5865 11.009 15.9033L9.56975 12.9612L12.3473 10.0456L15.15 11.5564C15.8009 11.9092 16.517 12.1091 17.2488 12.1423C17.9807 12.1755 18.7106 12.0412 19.388 11.7487C20.0654 11.4562 20.6741 11.0125 21.1719 10.4483C21.6696 9.88422 22.0445 9.21318 22.2705 8.48178L23.2805 5.30112H27.2195L28.2295 8.48178C28.4555 9.21318 28.8304 9.88422 29.3281 10.4483C29.8259 11.0125 30.4346 11.4562 31.112 11.7487C31.7894 12.0412 32.5193 12.1755 33.2512 12.1423C33.983 12.1091 34.6991 11.9092 35.35 11.5564L38.2285 10.0456L41.006 12.9612L39.491 15.9033C39.1684 16.583 38.9887 17.3276 38.964 18.0866C38.9394 18.8455 39.0703 19.6012 39.3481 20.3024C39.6258 21.0036 40.0438 21.634 40.5738 22.1509C41.1038 22.6678 41.7334 23.0591 42.42 23.2984L45.45 24.3586V28.573ZM25.25 15.9033C23.2524 15.9033 21.2997 16.5251 19.6387 17.6901C17.9778 18.8551 16.6833 20.5109 15.9188 22.4482C15.1544 24.3855 14.9544 26.5173 15.3441 28.5739C15.7338 30.6306 16.6957 32.5197 18.1082 34.0024C19.5207 35.4852 21.3204 36.4949 23.2796 36.904C25.2388 37.3131 27.2696 37.1032 29.1151 36.3007C30.9606 35.4983 32.538 34.1393 33.6478 32.3958C34.7576 30.6523 35.35 28.6025 35.35 26.5055C35.35 23.6937 34.2859 20.9969 32.3918 19.0086C30.4977 17.0203 27.9287 15.9033 25.25 15.9033ZM25.25 31.8066C24.2512 31.8066 23.2748 31.4957 22.4444 30.9132C21.6139 30.3308 20.9666 29.5028 20.5844 28.5342C20.2022 27.5655 20.1022 26.4997 20.297 25.4713C20.4919 24.443 20.9729 23.4985 21.6791 22.7571C22.3854 22.0157 23.2852 21.5108 24.2648 21.3063C25.2444 21.1017 26.2598 21.2067 27.1825 21.608C28.1053 22.0092 28.894 22.6886 29.4489 23.5604C30.0038 24.4322 30.3 25.4571 30.3 26.5055C30.3 27.9115 29.7679 29.2598 28.8209 30.254C27.8738 31.2481 26.5893 31.8066 25.25 31.8066Z" fill="#49454F"/>
</svg>
