<svg width="51" height="50" viewBox="0 0 51 50" fill="none" xmlns="http://www.w3.org/2000/svg">
<path d="M10.5209 25C9.96279 25 9.42759 25.2195 9.03298 25.6102C8.63838 26.0009 8.41669 26.5308 8.41669 27.0833V43.75C8.41669 44.3025 8.63838 44.8324 9.03298 45.2231C9.42759 45.6138 9.96279 45.8333 10.5209 45.8333C11.0789 45.8333 11.6141 45.6138 12.0087 45.2231C12.4033 44.8324 12.625 44.3025 12.625 43.75V27.0833C12.625 26.5308 12.4033 26.0009 12.0087 25.6102C11.6141 25.2195 11.0789 25 10.5209 25ZM21.0417 4.16666C20.4836 4.16666 19.9484 4.38615 19.5538 4.77685C19.1592 5.16755 18.9375 5.69746 18.9375 6.24999V43.75C18.9375 44.3025 19.1592 44.8324 19.5538 45.2231C19.9484 45.6138 20.4836 45.8333 21.0417 45.8333C21.5997 45.8333 22.1349 45.6138 22.5296 45.2231C22.9242 44.8324 23.1459 44.3025 23.1459 43.75V6.24999C23.1459 5.69746 22.9242 5.16755 22.5296 4.77685C22.1349 4.38615 21.5997 4.16666 21.0417 4.16666ZM42.0834 33.3333C41.5253 33.3333 40.9901 33.5528 40.5955 33.9435C40.2009 34.3342 39.9792 34.8641 39.9792 35.4167V43.75C39.9792 44.3025 40.2009 44.8324 40.5955 45.2231C40.9901 45.6138 41.5253 45.8333 42.0834 45.8333C42.6414 45.8333 43.1766 45.6138 43.5712 45.2231C43.9658 44.8324 44.1875 44.3025 44.1875 43.75V35.4167C44.1875 34.8641 43.9658 34.3342 43.5712 33.9435C43.1766 33.5528 42.6414 33.3333 42.0834 33.3333ZM31.5625 16.6667C31.0045 16.6667 30.4693 16.8862 30.0746 17.2769C29.68 17.6676 29.4584 18.1975 29.4584 18.75V43.75C29.4584 44.3025 29.68 44.8324 30.0746 45.2231C30.4693 45.6138 31.0045 45.8333 31.5625 45.8333C32.1206 45.8333 32.6558 45.6138 33.0504 45.2231C33.445 44.8324 33.6667 44.3025 33.6667 43.75V18.75C33.6667 18.1975 33.445 17.6676 33.0504 17.2769C32.6558 16.8862 32.1206 16.6667 31.5625 16.6667Z" fill="#49454F"/>
</svg>
