<svg width="45" height="46" viewBox="0 0 45 46" fill="none" xmlns="http://www.w3.org/2000/svg">
<path d="M23.8331 24.7599L18.6569 29.9123C18.4459 30.1215 18.2785 30.3704 18.1643 30.6445C18.05 30.9187 17.9912 31.2128 17.9912 31.5098C17.9912 31.8069 18.05 32.1009 18.1643 32.3751C18.2785 32.6493 18.4459 32.8982 18.6569 33.1073C18.8661 33.3182 19.115 33.4856 19.3893 33.5998C19.6635 33.7141 19.9577 33.7729 20.2548 33.7729C20.5518 33.7729 20.846 33.7141 21.1203 33.5998C21.3945 33.4856 21.6434 33.3182 21.8526 33.1073L30.8547 24.1074C31.0596 23.8934 31.2202 23.6411 31.3274 23.3649C31.5524 22.8171 31.5524 22.2027 31.3274 21.6549C31.2202 21.3787 31.0596 21.1264 30.8547 20.9124L21.8526 11.9124C21.6428 11.7026 21.3937 11.5362 21.1195 11.4227C20.8454 11.3092 20.5515 11.2507 20.2548 11.2507C19.958 11.2507 19.6642 11.3092 19.39 11.4227C19.1158 11.5362 18.8667 11.7026 18.6569 11.9124C18.447 12.1222 18.2806 12.3713 18.167 12.6454C18.0535 12.9195 17.995 13.2132 17.995 13.5099C17.995 13.8066 18.0535 14.1004 18.167 14.3745C18.2806 14.6486 18.447 14.8976 18.6569 15.1074L23.8331 20.2599H2.25053C1.65365 20.2599 1.08122 20.4969 0.659164 20.9189C0.237108 21.3409 0 21.9131 0 22.5099C0 23.1066 0.237108 23.6789 0.659164 24.1009C1.08122 24.5228 1.65365 24.7599 2.25053 24.7599H23.8331ZM22.5053 0.00998993C18.2992 -0.00878349 14.1721 1.15121 10.592 3.3584C7.01195 5.5656 4.12219 8.73164 2.25053 12.4974C1.98193 13.0345 1.93774 13.6562 2.12766 14.2259C2.31759 14.7955 2.72608 15.2664 3.26327 15.5349C3.80046 15.8034 4.42234 15.8476 4.99212 15.6577C5.56189 15.4679 6.03288 15.0595 6.30148 14.5224C7.72424 11.6499 9.88844 9.20934 12.5704 7.45292C15.2524 5.69651 18.3549 4.68798 21.5573 4.53155C24.7596 4.37512 27.9457 5.07646 30.7861 6.56311C33.6266 8.04975 36.0185 10.2678 37.7146 12.9879C39.4107 15.7081 40.3495 18.8317 40.4339 22.036C40.5183 25.2403 39.7454 28.409 38.1949 31.2147C36.6444 34.0203 34.3726 36.3612 31.6144 37.9953C28.8561 39.6294 25.7114 40.4974 22.5053 40.5098C19.1495 40.5243 15.8576 39.5926 13.0074 37.8216C10.1572 36.0506 7.86414 33.5121 6.3915 30.4973C6.12291 29.9603 5.65191 29.5519 5.08214 29.362C4.51236 29.1721 3.89048 29.2163 3.35329 29.4848C2.8161 29.7534 2.40761 30.2242 2.21768 30.7939C2.02776 31.3635 2.07195 31.9853 2.34055 32.5223C4.12483 36.1122 6.83603 39.1603 10.1937 41.3514C13.5514 43.5424 17.4336 44.7969 21.4388 44.985C25.444 45.1731 29.4267 44.2879 32.9751 42.4212C36.5234 40.5544 39.5084 37.7738 41.6214 34.3669C43.7344 30.9601 44.8986 27.0507 44.9937 23.0431C45.0887 19.0356 44.1111 15.0754 42.1619 11.5723C40.2128 8.06916 37.3629 5.15024 33.9071 3.11746C30.4512 1.08469 26.5149 0.0118719 22.5053 0.00998993Z" fill="#49454F"/>
</svg>
