<svg width="76" height="21" viewBox="0 0 76 21" fill="none" xmlns="http://www.w3.org/2000/svg">
<path d="M20.2927 17.3906C19.1657 17.3906 18.1093 17.1894 17.2423 16.7344C16.3927 16.2794 15.2917 15.5313 15.2917 15.5313L16.8088 13.2344C17.4591 13.5625 18.274 14.0656 18.7595 14.3281C19.245 14.5906 19.9906 14.6563 20.4934 14.6563C21.0829 14.6563 21.4124 14.735 21.7938 14.4375C22.1753 14.14 22.1189 14.1269 22.1189 13.6719C22.1189 13.3044 22.0712 13.335 21.7938 13.125C21.5164 12.8975 20.9342 12.8494 20.0326 12.4994C18.4548 11.8869 17.4504 11.48 16.8088 10.85C16.1673 10.22 15.9419 9.05188 15.9419 8.12438C15.9419 7.03938 16.7469 5.83626 17.6138 5.17126C18.4981 4.50626 19.193 4.40563 20.7101 4.40563C21.5771 4.40563 22.7475 4.67688 23.5277 5.06188C24.308 5.42938 24.3947 5.39001 25.1533 5.93688L23.7445 8.34313C22.8775 7.8575 21.7505 7.24938 20.7101 7.24938C20.1683 7.24938 19.9515 7.21875 19.6264 7.35876C19.349 7.53376 19.3013 7.54688 19.193 7.875C19.193 8.12 19.209 8.30375 19.3304 8.46125C19.4518 8.61875 19.6858 8.785 20.0326 8.96C20.3794 9.135 21.0309 9.3275 21.7938 9.625C22.8168 10.0275 23.4063 10.2244 23.9612 10.6094C24.5334 10.9769 24.9278 11.6856 25.1533 12.1406C25.396 12.5781 25.37 13.0419 25.37 13.6719C25.37 14.5119 25.1706 14.9931 24.7198 15.6406C24.2863 16.2706 23.7835 16.695 22.9859 17.0625C22.1883 17.4125 21.333 17.3906 20.2927 17.3906Z" fill="black"/>
<path d="M27.9925 8.14187C27.9925 6.39187 27.9578 5.22812 27.8885 4.65062H31.4387C31.4387 5.25 31.4387 5.52126 31.4387 6.34375C31.8721 5.79688 32.0282 5.75751 32.5224 5.14063C33.2506 4.68563 34.0699 4.38812 35.0409 4.38812C35.9772 4.38812 36.7748 4.59812 37.4336 5.01812C37.8324 5.46875 38.2572 5.62626 38.4827 6.34375C38.8294 5.62626 39.614 5.215 40.3249 4.81251C41.0358 4.39251 41.8551 4.38812 42.7394 4.38812C44.1785 4.38812 45.1452 4.96125 45.9601 5.90625C46.7924 6.83375 46.7187 7.98 46.7187 9.625V17.1719H43.3593L43.2509 9.95312C43.1425 9.1875 43.2162 8.92938 42.8174 8.42188C42.4186 7.89688 42.2106 7.65625 41.517 7.65625C40.7541 7.65625 40.7584 7.65625 39.9825 7.90562C39.5317 8.43062 39.1329 9.12187 39.1329 10.0319L39.0245 17.1719L35.5567 17.2244V10.0319C35.5567 9.06937 35.4223 8.72813 35.0409 8.20313C34.3646 7.87937 34.408 7.65625 33.7144 7.65625C32.9688 7.65625 32.5744 7.62563 32.0889 8.20313C31.6207 8.76313 31.4387 9.13937 31.4387 10.0319L31.3303 17.1719L27.8625 17.2244L27.9925 8.14187Z" fill="black"/>
<path d="M53.546 17.5C52.6963 17.5 51.9464 17.4125 51.2702 17.0625C50.594 16.695 50.1865 16.4063 49.753 15.8594C49.3716 15.2119 49.1028 14.6781 49.1028 13.8906C48.9945 12.1406 49.5623 11.1081 50.62 10.3906C51.6777 9.67313 52.8957 9.625 54.738 9.51563L56.0384 9.73438L57.1221 10.0625L57.0138 9.07813C56.9515 8.36063 56.6713 8.35188 56.2552 7.98438C55.8217 7.76563 55.4836 7.53812 54.738 7.53812C53.9578 7.53812 53.2209 7.54688 52.5982 7.65625C51.8873 7.93625 52.0288 7.76563 51.0535 8.20313L50.1865 5.35938C50.1865 5.35938 50.7327 5.30688 51.7037 4.92188C52.6747 4.51938 53.6906 4.38812 54.7309 4.38812C56.4648 4.38812 57.8259 4.79937 58.8143 5.62187C59.8026 6.44437 60.3732 7.62563 60.3732 9.07813L60.4816 12.0313V14.9844C60.4816 15.3869 60.4816 15.8964 60.4816 16.4063C60.4816 16.9531 60.4816 16.9531 60.4816 17.2813L57.0138 17.1719C57.014 16.9027 57.0138 17.1719 57.0138 16.9531C57.0138 16.625 57.0484 16.2444 57.0138 15.8594C56.0254 17.0844 54.9548 17.3906 53.546 17.5ZM54.3046 14.9844C55.1368 14.9844 55.2799 14.875 56.0384 14.6563C56.5803 14.2188 57.0138 13.7813 57.1221 13.125V12.1406L56.9677 12.0313L54.9548 11.5938C54.0705 11.5938 53.2658 12.0881 52.7803 12.4206C52.4623 12.9063 52.4623 13.0419 52.4623 13.6719C52.4623 14.1969 52.8741 14.3588 53.2209 14.6563C53.585 14.9363 53.6543 14.9844 54.3046 14.9844Z" fill="black"/>
<path d="M72.4022 15.4219L72.1854 15.8594C71.4269 16.5156 71.0021 16.8569 70.3432 17.1719C69.6843 17.4694 69.0991 17.5 68.2842 17.5C66.2252 17.1719 65.3582 16.5156 64.5996 15.8594C63.646 14.6344 63.0824 13.6719 62.8657 10.9375C62.8657 8.8025 63.6503 7.40687 64.6039 6.19937C65.5576 4.99187 66.884 4.38812 68.5833 4.38812C69.4502 4.38812 70.2218 4.55437 70.898 4.88687C71.5742 5.21937 72.1031 5.68312 72.4845 6.27812H72.5366C72.5366 5.61312 72.4585 5.01375 72.5106 4.59376H75.87C75.7833 5.85375 75.87 7.13563 75.87 8.20313V16.1875V19.6875V21H72.3285L72.4022 15.4219ZM69.2595 14.4375C70.1264 14.4375 70.6379 14.3413 71.2101 13.7813C71.7823 13.2038 71.8603 13.125 72.1854 12.4688L72.5106 11.1344L72.4022 10.0625C72.1508 9.15689 72.0771 9.07813 71.5352 8.3125C70.9804 7.77 70.2348 7.32813 69.3375 7.32813C68.5009 7.4375 68.0674 7.65625 67.4172 8.20313C66.9491 8.90313 66.4766 9.75187 66.4766 11.1344C66.4766 12.5519 66.715 12.5738 67.2005 13.3438C67.9591 14 68.0479 14.4375 69.2595 14.4375Z" fill="black"/>
<path fill-rule="evenodd" clip-rule="evenodd" d="M6.0803 17.5C4.38107 17.5 2.84223 16.9925 1.8539 15.75C0.882913 14.49 0.119995 13.0156 0.119995 10.8281C0.119995 9.49813 0.661841 7.54688 1.44643 6.69812C1.89725 5.70062 2.43042 5.57376 3.2627 5.03126C4.11231 4.48876 4.95326 4.38812 6.0803 4.38812C6.84321 4.38812 7.13364 4.55 7.70583 4.81251C8.29536 5.07501 9.17098 5.69188 9.60446 6.23438H9.65648V0H13.2327L13.2283 13.4706C13.2283 15.2906 13.2327 17.1719 13.2327 17.1719L9.65648 17.1719C9.63914 16.8744 9.65648 16.2794 9.65648 15.4219C9.25768 16.0169 9.15364 16.3056 8.44274 16.6731C7.74918 17.0406 6.84321 17.5 6.0803 17.5ZM8.89789 13.4706C8.24768 13.8906 8.13931 14.3281 6.94725 14.4375C6.02828 14.4375 5.32171 14.2188 4.6715 13.5625C4.186 12.7925 3.69618 12.4644 3.69618 11.0469C3.69618 9.69938 3.96927 9.24875 4.45476 8.53125C4.94025 7.81375 5.81154 7.4375 6.73051 7.4375C7.59746 7.4375 8.3257 7.86188 8.89789 8.42188C9.47008 8.98188 9.43974 9.40625 9.65648 10.1719V10.8281V11.5938C9.54811 12.4688 9.223 12.7969 8.89789 13.4706Z" fill="black"/>
</svg>
