<svg width="55" height="55" viewBox="0 0 55 55" fill="none" xmlns="http://www.w3.org/2000/svg">
<path d="M41.25 30.2042V22.9167C41.2467 19.6697 40.0945 16.5286 37.9973 14.0497C35.9001 11.5708 32.9933 9.91412 29.7917 9.37296V6.87504C29.7917 6.26725 29.5502 5.68436 29.1205 5.25459C28.6907 4.82482 28.1078 4.58337 27.5 4.58337C26.8922 4.58337 26.3093 4.82482 25.8796 5.25459C25.4498 5.68436 25.2084 6.26725 25.2084 6.87504V9.37296C22.0068 9.91412 19.1 11.5708 17.0028 14.0497C14.9056 16.5286 13.7533 19.6697 13.75 22.9167V30.2042C12.4127 30.677 11.2544 31.5519 10.4338 32.7089C9.61328 33.8658 9.17067 35.2483 9.16669 36.6667V41.25C9.16669 41.8578 9.40813 42.4407 9.8379 42.8705C10.2677 43.3003 10.8506 43.5417 11.4584 43.5417H18.6542C19.1819 45.4836 20.334 47.1979 21.9326 48.4201C23.5313 49.6422 25.4877 50.3044 27.5 50.3044C29.5123 50.3044 31.4687 49.6422 33.0674 48.4201C34.6661 47.1979 35.8181 45.4836 36.3459 43.5417H43.5417C44.1495 43.5417 44.7324 43.3003 45.1621 42.8705C45.5919 42.4407 45.8334 41.8578 45.8334 41.25V36.6667C45.8294 35.2483 45.3868 33.8658 44.5662 32.7089C43.7456 31.5519 42.5873 30.677 41.25 30.2042ZM18.3334 22.9167C18.3334 20.4856 19.2991 18.154 21.0182 16.4349C22.7373 14.7158 25.0689 13.75 27.5 13.75C29.9312 13.75 32.2627 14.7158 33.9818 16.4349C35.7009 18.154 36.6667 20.4856 36.6667 22.9167V29.7917H18.3334V22.9167ZM27.5 45.8334C26.7002 45.8285 25.9155 45.6145 25.224 45.2125C24.5325 44.8104 23.9583 44.2344 23.5584 43.5417H31.4417C31.0418 44.2344 30.4675 44.8104 29.776 45.2125C29.0845 45.6145 28.2999 45.8285 27.5 45.8334ZM41.25 38.9584H13.75V36.6667C13.75 36.0589 13.9915 35.476 14.4212 35.0463C14.851 34.6165 15.4339 34.375 16.0417 34.375H38.9584C39.5661 34.375 40.149 34.6165 40.5788 35.0463C41.0086 35.476 41.25 36.0589 41.25 36.6667V38.9584Z" fill="#49454F"/>
</svg>
