<svg width="47" height="43" viewBox="0 0 47 43" fill="none" xmlns="http://www.w3.org/2000/svg">
<path d="M20.2275 8.75002L21.375 7.49627V15.125C21.375 15.6886 21.5989 16.2291 21.9974 16.6276C22.3959 17.0261 22.9364 17.25 23.5 17.25C24.0636 17.25 24.6041 17.0261 25.0026 16.6276C25.4011 16.2291 25.625 15.6886 25.625 15.125V7.49627L26.7725 8.66502C26.9654 8.88288 27.201 9.05881 27.4646 9.18189C27.7283 9.30498 28.0144 9.3726 28.3053 9.38057C28.5962 9.38854 28.8856 9.33668 29.1556 9.22822C29.4256 9.11976 29.6705 8.95699 29.875 8.75002C30.0742 8.55248 30.2323 8.31745 30.3401 8.0585C30.448 7.79955 30.5036 7.5218 30.5036 7.24127C30.5036 6.96075 30.448 6.683 30.3401 6.42405C30.2323 6.1651 30.0742 5.93007 29.875 5.73252L25.0088 0.866274C24.8067 0.672813 24.5683 0.521162 24.3075 0.420024C23.7901 0.207486 23.2099 0.207486 22.6925 0.420024C22.4317 0.521162 22.1933 0.672813 21.9912 0.866274L17.125 5.64752C16.7136 6.05894 16.4825 6.61694 16.4825 7.19877C16.4825 7.7806 16.7136 8.33861 17.125 8.75002C17.5364 9.16144 18.0944 9.39257 18.6762 9.39257C19.2581 9.39257 19.8161 9.16144 20.2275 8.75002V8.75002ZM23.5 21.5C22.2391 21.5 21.0066 21.8739 19.9582 22.5744C18.9099 23.2749 18.0928 24.2705 17.6103 25.4354C17.1278 26.6003 17.0015 27.8821 17.2475 29.1187C17.4935 30.3553 18.1006 31.4913 18.9922 32.3828C19.8838 33.2744 21.0197 33.8815 22.2563 34.1275C23.4929 34.3735 24.7747 34.2473 25.9396 33.7648C27.1045 33.2822 28.1001 32.4651 28.8006 31.4168C29.5011 30.3684 29.875 29.1359 29.875 27.875C29.875 26.1843 29.2034 24.5628 28.0078 23.3672C26.8123 22.1717 25.1908 21.5 23.5 21.5ZM23.5 30C23.0797 30 22.6689 29.8754 22.3194 29.6419C21.97 29.4084 21.6976 29.0765 21.5368 28.6882C21.3759 28.2999 21.3338 27.8727 21.4158 27.4605C21.4978 27.0482 21.7002 26.6696 21.9974 26.3724C22.2946 26.0752 22.6732 25.8728 23.0854 25.7909C23.4976 25.7089 23.9249 25.7509 24.3132 25.9118C24.7015 26.0726 25.0334 26.345 25.2669 26.6944C25.5004 27.0439 25.625 27.4547 25.625 27.875C25.625 28.4386 25.4011 28.9791 25.0026 29.3776C24.6041 29.7761 24.0636 30 23.5 30ZM8.625 27.875C8.625 28.2953 8.74963 28.7062 8.98313 29.0556C9.21663 29.4051 9.54851 29.6774 9.9368 29.8383C10.3251 29.9991 10.7524 30.0412 11.1646 29.9592C11.5768 29.8772 11.9554 29.6748 12.2526 29.3776C12.5498 29.0804 12.7522 28.7018 12.8342 28.2896C12.9162 27.8774 12.8741 27.4501 12.7132 27.0618C12.5524 26.6735 12.28 26.3416 11.9306 26.1081C11.5811 25.8746 11.1703 25.75 10.75 25.75C10.1864 25.75 9.64591 25.9739 9.2474 26.3724C8.84888 26.7709 8.625 27.3114 8.625 27.875ZM38.375 27.875C38.375 27.4547 38.2504 27.0439 38.0169 26.6944C37.7834 26.345 37.4515 26.0726 37.0632 25.9118C36.6749 25.7509 36.2476 25.7089 35.8354 25.7909C35.4232 25.8728 35.0446 26.0752 34.7474 26.3724C34.4502 26.6696 34.2478 27.0482 34.1658 27.4605C34.0838 27.8727 34.1259 28.2999 34.2868 28.6882C34.4476 29.0765 34.72 29.4084 35.0694 29.6419C35.4189 29.8754 35.8297 30 36.25 30C36.8136 30 37.3541 29.7761 37.7526 29.3776C38.1511 28.9791 38.375 28.4386 38.375 27.875ZM40.5 13H32C31.4364 13 30.8959 13.2239 30.4974 13.6224C30.0989 14.0209 29.875 14.5614 29.875 15.125C29.875 15.6886 30.0989 16.2291 30.4974 16.6276C30.8959 17.0261 31.4364 17.25 32 17.25H40.5C41.0636 17.25 41.6041 17.4739 42.0026 17.8724C42.4011 18.2709 42.625 18.8114 42.625 19.375V36.375C42.625 36.9386 42.4011 37.4791 42.0026 37.8776C41.6041 38.2761 41.0636 38.5 40.5 38.5H6.5C5.93641 38.5 5.39591 38.2761 4.9974 37.8776C4.59888 37.4791 4.375 36.9386 4.375 36.375V19.375C4.375 18.8114 4.59888 18.2709 4.9974 17.8724C5.39591 17.4739 5.93641 17.25 6.5 17.25H15C15.5636 17.25 16.1041 17.0261 16.5026 16.6276C16.9011 16.2291 17.125 15.6886 17.125 15.125C17.125 14.5614 16.9011 14.0209 16.5026 13.6224C16.1041 13.2239 15.5636 13 15 13H6.5C4.80924 13 3.18774 13.6717 1.99219 14.8672C0.79665 16.0628 0.125 17.6843 0.125 19.375V36.375C0.125 38.0658 0.79665 39.6873 1.99219 40.8828C3.18774 42.0784 4.80924 42.75 6.5 42.75H40.5C42.1908 42.75 43.8123 42.0784 45.0078 40.8828C46.2034 39.6873 46.875 38.0658 46.875 36.375V19.375C46.875 17.6843 46.2034 16.0628 45.0078 14.8672C43.8123 13.6717 42.1908 13 40.5 13Z" fill="#49454F"/>
</svg>
