<svg width="20" height="20" viewBox="0 0 20 20" fill="none" xmlns="http://www.w3.org/2000/svg">
<path d="M17 2.00001H15.55C15.4306 1.63532 15.244 1.29617 15 1.00001C14.717 0.683643 14.3702 0.430922 13.9823 0.25854C13.5945 0.0861583 13.1744 -0.00196013 12.75 6.90109e-06H7.27C6.8422 -0.00480785 6.41832 0.0819325 6.02681 0.254407C5.63529 0.426882 5.28519 0.681101 5 1.00001C4.74885 1.29456 4.55547 1.63382 4.43 2.00001H3C2.20435 2.00001 1.44129 2.31608 0.87868 2.87869C0.316071 3.4413 0 4.20436 0 5.00001V17C0 17.7957 0.316071 18.5587 0.87868 19.1213C1.44129 19.6839 2.20435 20 3 20H17C17.7956 20 18.5587 19.6839 19.1213 19.1213C19.6839 18.5587 20 17.7957 20 17V5.00001C20 4.20436 19.6839 3.4413 19.1213 2.87869C18.5587 2.31608 17.7956 2.00001 17 2.00001V2.00001ZM6.52 2.34001C6.61371 2.23334 6.72906 2.14785 6.85838 2.08922C6.9877 2.0306 7.12802 2.00019 7.27 2.00001H12.73C12.872 2.00019 13.0123 2.0306 13.1416 2.08922C13.2709 2.14785 13.3863 2.23334 13.48 2.34001C13.5744 2.44501 13.6454 2.5688 13.6885 2.70324C13.7316 2.83767 13.7457 2.97971 13.73 3.12001L13.23 7.12001C13.2005 7.36392 13.0823 7.58844 12.8979 7.75075C12.7134 7.91305 12.4757 8.00178 12.23 8.00001H10.59L11.73 5.60001C11.8224 5.36465 11.8223 5.10302 11.7296 4.86778C11.6369 4.63253 11.4585 4.44115 11.2303 4.33214C11.0022 4.22313 10.7412 4.20461 10.4999 4.28028C10.2587 4.35596 10.055 4.52022 9.93 4.74001L8.37 8.00001H7.77C7.52432 8.00178 7.28659 7.91305 7.10215 7.75075C6.91771 7.58844 6.79948 7.36392 6.77 7.12001L6.27 3.12001C6.25425 2.97971 6.26839 2.83767 6.31148 2.70324C6.35457 2.5688 6.42563 2.44501 6.52 2.34001ZM18 17C18 17.2652 17.8946 17.5196 17.7071 17.7071C17.5196 17.8947 17.2652 18 17 18H3C2.73478 18 2.48043 17.8947 2.29289 17.7071C2.10536 17.5196 2 17.2652 2 17V5.00001C2 4.73479 2.10536 4.48044 2.29289 4.2929C2.48043 4.10536 2.73478 4.00001 3 4.00001H4.37L4.79 7.37001C4.88069 8.09992 5.23638 8.77109 5.78946 9.25596C6.34255 9.74083 7.05449 10.0056 7.79 10H12.25C12.9855 10.0056 13.6975 9.74083 14.2505 9.25596C14.8036 8.77109 15.1593 8.09992 15.25 7.37001L15.63 4.00001H17C17.2652 4.00001 17.5196 4.10536 17.7071 4.2929C17.8946 4.48044 18 4.73479 18 5.00001V17ZM12 14H8C7.73478 14 7.48043 14.1054 7.29289 14.2929C7.10536 14.4804 7 14.7348 7 15C7 15.2652 7.10536 15.5196 7.29289 15.7071C7.48043 15.8947 7.73478 16 8 16H12C12.2652 16 12.5196 15.8947 12.7071 15.7071C12.8946 15.5196 13 15.2652 13 15C13 14.7348 12.8946 14.4804 12.7071 14.2929C12.5196 14.1054 12.2652 14 12 14Z" fill="black"/>
</svg>
