<svg width="20" height="19" viewBox="0 0 20 19" fill="none" xmlns="http://www.w3.org/2000/svg">
<path d="M19.6094 17.3982C17.6064 15.4099 17.6582 12.1762 17.9271 9.3668C17.975 8.86586 17.979 8.35851 17.9372 7.85039C17.7581 5.67073 16.7513 3.6426 15.1238 2.18303C13.4963 0.723456 11.3719 -0.0566193 9.18735 0.00320294C7.00281 0.0630252 4.92419 0.958197 3.37891 2.50465C1.83363 4.05111 0.939137 6.1313 0.87936 8.3175C0.819583 10.5037 1.59907 12.6297 3.05753 14.2585C4.51599 15.8872 6.54258 16.8948 8.72059 17.074C9.23425 17.1163 9.74713 17.1118 10.2534 17.0622C13.0526 16.788 16.2731 16.7294 18.2612 18.7189C18.3494 18.808 18.4545 18.8787 18.5701 18.9269C18.6858 18.9752 18.8099 19 18.9353 19C19.0606 19 19.1847 18.9752 19.3004 18.9269C19.4161 18.8787 19.5211 18.808 19.6094 18.7189C19.7805 18.5418 19.8762 18.305 19.8762 18.0586C19.8762 17.8122 19.7805 17.5754 19.6094 17.3982ZM9.44092 15.2224C8.12646 15.2224 6.84151 14.8323 5.74858 14.1015C4.65564 13.3706 3.8038 12.3319 3.30077 11.1165C2.79775 9.90121 2.66614 8.56389 2.92258 7.27371C3.17902 5.98352 3.81199 4.79841 4.74146 3.86823C5.67092 2.93806 6.85514 2.30461 8.14434 2.04797C9.43355 1.79134 10.7698 1.92305 11.9843 2.42646C13.1987 2.92986 14.2366 3.78235 14.9669 4.87612C15.6972 5.96989 16.087 7.25581 16.087 8.57127C16.087 10.3353 15.3868 12.027 14.1404 13.2743C12.894 14.5216 11.2036 15.2224 9.44092 15.2224Z" fill="#49454F"/>
</svg>
