<svg width="47" height="36" viewBox="0 0 47 36" fill="none" xmlns="http://www.w3.org/2000/svg">
<path d="M23.8813 18.4584C25.004 17.4961 25.9045 16.306 26.5217 14.9688C27.1389 13.6316 27.4584 12.1786 27.4584 10.7084C27.4584 7.94568 26.3499 5.29616 24.3769 3.34266C22.4038 1.38915 19.7278 0.291687 16.9375 0.291687C14.1472 0.291687 11.4712 1.38915 9.49817 3.34266C7.52513 5.29616 6.41669 7.94568 6.41669 10.7084C6.41667 12.1786 6.7361 13.6316 7.35331 14.9688C7.97051 16.306 8.87103 17.4961 9.99377 18.4584C7.04823 19.7789 4.54917 21.9115 2.79537 24.6012C1.04158 27.2908 0.107284 30.4236 0.104187 33.625C0.104187 34.1776 0.325875 34.7075 0.720483 35.0982C1.11509 35.4889 1.65029 35.7084 2.20835 35.7084C2.76641 35.7084 3.30162 35.4889 3.69622 35.0982C4.09083 34.7075 4.31252 34.1776 4.31252 33.625C4.31252 30.3098 5.64265 27.1304 8.0103 24.7862C10.3779 22.442 13.5892 21.125 16.9375 21.125C20.2859 21.125 23.4971 22.442 25.8647 24.7862C28.2324 27.1304 29.5625 30.3098 29.5625 33.625C29.5625 34.1776 29.7842 34.7075 30.1788 35.0982C30.5734 35.4889 31.1086 35.7084 31.6667 35.7084C32.2247 35.7084 32.76 35.4889 33.1546 35.0982C33.5492 34.7075 33.7709 34.1776 33.7709 33.625C33.7678 30.4236 32.8335 27.2908 31.0797 24.6012C29.3259 21.9115 26.8268 19.7789 23.8813 18.4584V18.4584ZM16.9375 16.9584C15.689 16.9584 14.4686 16.5918 13.4305 15.905C12.3924 15.2183 11.5833 14.2422 11.1055 13.1001C10.6278 11.9581 10.5027 10.7014 10.7463 9.48904C10.9899 8.27666 11.5911 7.16301 12.4739 6.28894C13.3567 5.41486 14.4815 4.8196 15.706 4.57845C16.9305 4.33729 18.1998 4.46106 19.3532 4.93411C20.5067 5.40716 21.4925 6.20823 22.1862 7.23604C22.8798 8.26385 23.25 9.47222 23.25 10.7084C23.25 12.366 22.585 13.9557 21.4011 15.1278C20.2173 16.2999 18.6117 16.9584 16.9375 16.9584ZM37.4321 17.625C38.7787 16.1236 39.6583 14.2689 39.9651 12.2841C40.2719 10.2992 39.9927 8.26892 39.1612 6.43752C38.3298 4.60612 36.9814 3.05168 35.2784 1.96132C33.5755 0.870958 31.5905 0.29115 29.5625 0.291687C29.0045 0.291687 28.4693 0.511181 28.0747 0.901881C27.68 1.29258 27.4584 1.82249 27.4584 2.37502C27.4584 2.92756 27.68 3.45746 28.0747 3.84816C28.4693 4.23886 29.0045 4.45835 29.5625 4.45835C31.2367 4.45835 32.8423 5.11683 34.0261 6.28894C35.21 7.46104 35.875 9.05075 35.875 10.7084C35.872 11.8026 35.579 12.8769 35.0251 13.8238C34.4712 14.7707 33.6759 15.5571 32.7188 16.1042C32.4068 16.2824 32.1462 16.5368 31.962 16.8432C31.7778 17.1496 31.6761 17.4977 31.6667 17.8542C31.6579 18.2079 31.7402 18.5579 31.9059 18.8714C32.0715 19.1849 32.3151 19.4514 32.6136 19.6459L33.4342 20.1875L33.7077 20.3334C36.2441 21.5244 38.3838 23.4083 39.875 25.7632C41.3661 28.118 42.1466 30.8457 42.1244 33.625C42.1244 34.1776 42.3461 34.7075 42.7407 35.0982C43.1353 35.4889 43.6705 35.7084 44.2286 35.7084C44.7866 35.7084 45.3218 35.4889 45.7164 35.0982C46.111 34.7075 46.3327 34.1776 46.3327 33.625C46.3499 30.428 45.5412 27.2797 43.9834 24.4793C42.4255 21.6789 40.1704 19.3194 37.4321 17.625V17.625Z" fill="#49454F"/>
</svg>
