<svg width="51" height="50" viewBox="0 0 51 50" fill="none" xmlns="http://www.w3.org/2000/svg">
<path d="M46.2917 31.25H42.0834V25C42.0834 24.4474 41.8617 23.9175 41.4671 23.5268C41.0724 23.1361 40.5372 22.9166 39.9792 22.9166H27.3542V18.75H31.5625C32.1206 18.75 32.6558 18.5305 33.0504 18.1398C33.445 17.7491 33.6667 17.2192 33.6667 16.6666V4.16665C33.6667 3.61411 33.445 3.08421 33.0504 2.69351C32.6558 2.30281 32.1206 2.08331 31.5625 2.08331H18.9375C18.3795 2.08331 17.8443 2.30281 17.4496 2.69351C17.055 3.08421 16.8334 3.61411 16.8334 4.16665V16.6666C16.8334 17.2192 17.055 17.7491 17.4496 18.1398C17.8443 18.5305 18.3795 18.75 18.9375 18.75H23.1459V22.9166H10.5209C9.96279 22.9166 9.42759 23.1361 9.03298 23.5268C8.63838 23.9175 8.41669 24.4474 8.41669 25V31.25H4.20835C3.65029 31.25 3.11509 31.4695 2.72048 31.8602C2.32588 32.2509 2.10419 32.7808 2.10419 33.3333V45.8333C2.10419 46.3858 2.32588 46.9158 2.72048 47.3065C3.11509 47.6972 3.65029 47.9166 4.20835 47.9166H16.8334C17.3914 47.9166 17.9266 47.6972 18.3212 47.3065C18.7158 46.9158 18.9375 46.3858 18.9375 45.8333V33.3333C18.9375 32.7808 18.7158 32.2509 18.3212 31.8602C17.9266 31.4695 17.3914 31.25 16.8334 31.25H12.625V27.0833H37.875V31.25H33.6667C33.1086 31.25 32.5734 31.4695 32.1788 31.8602C31.7842 32.2509 31.5625 32.7808 31.5625 33.3333V45.8333C31.5625 46.3858 31.7842 46.9158 32.1788 47.3065C32.5734 47.6972 33.1086 47.9166 33.6667 47.9166H46.2917C46.8497 47.9166 47.3849 47.6972 47.7796 47.3065C48.1742 46.9158 48.3959 46.3858 48.3959 45.8333V33.3333C48.3959 32.7808 48.1742 32.2509 47.7796 31.8602C47.3849 31.4695 46.8497 31.25 46.2917 31.25ZM14.7292 35.4166V43.75H6.31252V35.4166H14.7292ZM21.0417 14.5833V6.24998H29.4584V14.5833H21.0417ZM44.1875 43.75H35.7709V35.4166H44.1875V43.75Z" fill="#49454F"/>
</svg>
