<svg width="77" height="77" viewBox="0 0 77 77" fill="none" xmlns="http://www.w3.org/2000/svg">
<path fill-rule="evenodd" clip-rule="evenodd" d="M38.5 6.41663C20.79 6.41663 6.41666 20.79 6.41666 38.5C6.41666 56.21 20.79 70.5833 38.5 70.5833C56.21 70.5833 70.5833 56.21 70.5833 38.5C70.5833 20.79 56.21 6.41663 38.5 6.41663ZM58.905 53.9962C54.3171 48.4137 43.1842 46.5208 38.5 46.5208C33.8158 46.5208 22.6829 48.4137 18.095 53.9962C14.8225 49.697 12.8333 44.3391 12.8333 38.5C12.8333 24.3512 24.3512 12.8333 38.5 12.8333C52.6487 12.8333 64.1667 24.3512 64.1667 38.5C64.1667 44.3391 62.1775 49.697 58.905 53.9962ZM27.2708 30.4791C27.2708 24.255 32.2758 19.25 38.5 19.25C44.7242 19.25 49.7292 24.255 49.7292 30.4791C49.7292 36.7033 44.7242 41.7083 38.5 41.7083C32.2758 41.7083 27.2708 36.7033 27.2708 30.4791Z" fill="#49454F"/>
</svg>
